<?xml version="1.0" standalone="no"?>
<!DOCTYPE svg PUBLIC "-//W3C//DTD SVG 20010904//EN"
 "http://www.w3.org/TR/2001/REC-SVG-20010904/DTD/svg10.dtd">
<svg version="1.0" xmlns="http://www.w3.org/2000/svg"
 width="64.000000pt" height="64.000000pt" viewBox="0 0 64.000000 64.000000"
 preserveAspectRatio="xMidYMid meet">

<g transform="translate(0.000000,64.000000) scale(0.100000,-0.100000)"
fill="#00B074" stroke="none">
<path d="M240 503 c-29 -33 -32 -41 -28 -90 5 -54 -5 -66 -30 -41 -19 19 -22
5 -5 -30 22 -45 64 -65 125 -60 49 5 61 -5 36 -30 -19 -19 -5 -22 30 -5 45 22
65 64 60 125 -4 35 -2 48 8 48 7 0 16 -4 19 -10 14 -23 23 -8 13 21 -17 48
-62 71 -130 66 -32 -2 -58 -1 -58 2 0 2 7 13 17 23 15 17 15 18 -4 18 -12 0
-35 -16 -53 -37z"/>
</g>
</svg>
